# xmcd
#
# Track frame offsets:
#	150
#	14366
#	29119
#	43467
#	57352
#	73577
#	91575
#	106736
#	121720
#	138558
#	152016
#	163801
#	183491
#
# Disc length: 2649 seconds
#
# Revision: 2
# Processed by: cddbd v1.5.2PL0 Copyright (c) Steve Scherf et al.
# Submitted via: audiograbber 1.83.01
#
DISCID=b00a570d
DTITLE=Various Artist - CDX 030
DYEAR=1992
DGENRE=Country
TTITLE0=Machel White - Familiar Ground
TTITLE1=Ricky Skaggs - From The Word Love
TTITLE2=Linda Davis - He Isn't My Affair Anymore
TTITLE3=Highway 101 - Honky Tonk Baby
TTITLE4=Anne Murray - I Can See Arkansas
TTITLE5=Wynonna Judd - I Saw The Light
TTITLE6=Mario Martin - It Takes A Lotta Heart
TTITLE7=Gerry House - My Jeans Are Too Tight
TTITLE8=Michael Johnson - One Honest Tear
TTITLE9=Terry Canady - Rubbergate
TTITLE10=Davis Daniel - Still Got A Crush On You
TTITLE11=Reba McEntire - The Night The Lights Went Out Georgia
TTITLE12=Dreamers - Thunder And Lightning
EXTD=
EXTT0=
EXTT1=
EXTT2=
EXTT3=
EXTT4=
EXTT5=
EXTT6=
EXTT7=
EXTT8=
EXTT9=
EXTT10=
EXTT11=
EXTT12=
PLAYORDER=
